<svg width="13" height="13" viewBox="0 0 13 13" fill="none" xmlns="http://www.w3.org/2000/svg">
<path d="M0.833333 7.20833H5.08333C5.27119 7.20833 5.45136 7.13371 5.5842 7.00087C5.71704 6.86803 5.79167 6.68786 5.79167 6.5V0.833333C5.79167 0.645472 5.71704 0.465304 5.5842 0.332466C5.45136 0.199628 5.27119 0.125 5.08333 0.125H0.833333C0.645472 0.125 0.465304 0.199628 0.332466 0.332466C0.199628 0.465304 0.125 0.645472 0.125 0.833333V6.5C0.125 6.68786 0.199628 6.86803 0.332466 7.00087C0.465304 7.13371 0.645472 7.20833 0.833333 7.20833ZM0.125 12.1667C0.125 12.3545 0.199628 12.5347 0.332466 12.6675C0.465304 12.8004 0.645472 12.875 0.833333 12.875H5.08333C5.27119 12.875 5.45136 12.8004 5.5842 12.6675C5.71704 12.5347 5.79167 12.3545 5.79167 12.1667V9.33333C5.79167 9.14547 5.71704 8.9653 5.5842 8.83247C5.45136 8.69963 5.27119 8.625 5.08333 8.625H0.833333C0.645472 8.625 0.465304 8.69963 0.332466 8.83247C0.199628 8.9653 0.125 9.14547 0.125 9.33333V12.1667ZM7.20833 12.1667C7.20833 12.3545 7.28296 12.5347 7.4158 12.6675C7.54864 12.8004 7.7288 12.875 7.91667 12.875H12.1667C12.3545 12.875 12.5347 12.8004 12.6675 12.6675C12.8004 12.5347 12.875 12.3545 12.875 12.1667V7.20833C12.875 7.02047 12.8004 6.8403 12.6675 6.70747C12.5347 6.57463 12.3545 6.5 12.1667 6.5H7.91667C7.7288 6.5 7.54864 6.57463 7.4158 6.70747C7.28296 6.8403 7.20833 7.02047 7.20833 7.20833V12.1667ZM7.91667 5.08333H12.1667C12.3545 5.08333 12.5347 5.00871 12.6675 4.87587C12.8004 4.74303 12.875 4.56286 12.875 4.375V0.833333C12.875 0.645472 12.8004 0.465304 12.6675 0.332466C12.5347 0.199628 12.3545 0.125 12.1667 0.125H7.91667C7.7288 0.125 7.54864 0.199628 7.4158 0.332466C7.28296 0.465304 7.20833 0.645472 7.20833 0.833333V4.375C7.20833 4.56286 7.28296 4.74303 7.4158 4.87587C7.54864 5.00871 7.7288 5.08333 7.91667 5.08333Z" fill="black"/>
</svg>
