<svg width="14" height="14" viewBox="0 0 14 14" fill="none" xmlns="http://www.w3.org/2000/svg">
<path d="M0 7.90247C0.119384 7.64606 0.326388 7.57228 0.598743 7.57739C1.21793 7.58945 1.83748 7.58105 2.45704 7.58105H2.62425C2.62425 7.63985 2.62425 7.68807 2.62425 7.73592C2.62425 8.26883 2.62169 8.80211 2.62534 9.33502C2.62753 9.63344 2.83308 9.86209 3.1277 9.90921C3.39422 9.95158 3.66219 9.79378 3.75127 9.5308C3.77975 9.44642 3.79034 9.35255 3.79107 9.26306C3.79472 8.75718 3.79289 8.25166 3.79289 7.74578C3.79289 7.69647 3.79289 7.64752 3.79289 7.58105H3.93929C4.59535 7.58105 5.25105 7.58032 5.90711 7.58105C6.24518 7.58141 6.41714 7.75564 6.41714 8.09825C6.4175 9.87049 6.41422 11.6431 6.42079 13.4153C6.42188 13.6838 6.34522 13.8832 6.09623 14.0001H0.328213C0.174512 13.9351 0.066811 13.824 0 13.6721V7.90247Z" fill="black"/>
<path d="M7.90001 14C7.64993 13.8839 7.57436 13.6837 7.57545 13.4152C7.58239 11.6565 7.5791 9.89781 7.5791 8.13872C7.5791 7.74169 7.73791 7.58097 8.13111 7.58097C8.76418 7.58097 9.3976 7.58097 10.0307 7.58097H10.1942C10.1975 7.63759 10.2026 7.68544 10.2026 7.73329C10.2033 8.25743 10.1993 8.78121 10.2044 9.30536C10.2081 9.71335 10.5425 9.98584 10.9229 9.89963C11.1869 9.83973 11.3698 9.60816 11.3709 9.3207C11.3735 8.79655 11.3716 8.27277 11.3716 7.74863C11.3716 7.69895 11.3716 7.64964 11.3716 7.58097H11.5126C12.1686 7.58097 12.8243 7.58061 13.4804 7.58097C13.8298 7.58134 13.9955 7.75045 13.9955 8.10402C13.9955 9.88101 13.9919 11.658 13.9995 13.435C14.0006 13.7034 13.9148 13.8915 13.6677 13.9993H7.89965L7.90001 14Z" fill="black"/>
<path d="M6.41703 5.65057e-05C6.41703 0.0986764 6.41703 0.179764 6.41703 0.260851C6.41703 0.748472 6.41484 1.23573 6.41776 1.72335C6.41995 2.08057 6.66273 2.33041 6.99898 2.33004C7.3345 2.32931 7.57582 2.07911 7.57801 1.72079C7.58093 1.20139 7.57874 0.681994 7.57874 0.162597C7.57874 0.113652 7.57874 0.0647073 7.57874 0.00699642C7.63642 0.00443961 7.6806 0.000421764 7.72477 0.000421764C8.38522 5.65057e-05 9.04566 -0.000308753 9.7061 0.000421764C10.031 0.000421764 10.2023 0.170998 10.2023 0.497539C10.203 2.3063 10.203 4.11506 10.2023 5.92419C10.2023 6.24963 10.0307 6.41875 9.70172 6.41875C7.89782 6.41948 6.09429 6.41948 4.2904 6.41875C3.96401 6.41875 3.79278 6.24708 3.79278 5.92126C3.79205 4.1125 3.79205 2.30374 3.79278 0.494617C3.79278 0.169171 3.96437 0.000421764 4.29186 0.000421764C4.9523 5.65057e-05 5.61274 0.000421764 6.27319 0.000421764C6.31408 0.000421764 6.3546 0.000421764 6.41667 0.000421764L6.41703 5.65057e-05Z" fill="black"/>
</svg>
