<svg width="18" height="10" viewBox="0 0 18 10" fill="none" xmlns="http://www.w3.org/2000/svg">
<path d="M0 4.86881C0.18715 4.61387 0.354988 4.34392 0.56467 4.10572C1.69631 2.8216 3.01924 1.7495 4.6176 0.994132C5.70877 0.478681 6.85927 0.149926 8.08011 0.0417716C10.4588 -0.168529 12.608 0.422458 14.5761 1.65164C15.8452 2.44435 16.9042 3.4422 17.8276 4.57053C18.0561 4.84993 18.057 5.1525 17.8294 5.43061C16.7562 6.7422 15.5017 7.86881 13.9678 8.70658C12.7092 9.3937 11.361 9.83018 9.90287 9.95894C7.77157 10.1469 5.8035 9.68426 3.97246 8.67353C2.45824 7.83791 1.22177 6.71688 0.162779 5.41688C0.0938051 5.33233 0.0533401 5.22675 0 5.13104C0 5.04349 0 4.95594 0 4.86838V4.86881ZM12.7791 5.03619C12.8067 3.11817 11.1269 1.49027 9.10001 1.4701C6.96181 1.44907 5.24803 2.9834 5.21906 4.94606C5.19009 6.87997 6.86065 8.50787 8.89631 8.53018C11.0354 8.55336 12.7511 7.00958 12.7791 5.03619Z" fill="#067B8F"/>
<path d="M11.0373 4.99858C11.0308 6.05351 10.0997 6.90888 8.96666 6.9003C7.86169 6.89214 6.95813 6.03034 6.96365 4.99C6.96871 3.9415 7.90584 3.08914 9.04391 3.09772C10.1397 3.1063 11.0437 3.96854 11.0373 4.99815V4.99858Z" fill="#067B8F"/>
</svg>
