<svg width="66" height="66" viewBox="0 0 66 66" fill="none" xmlns="http://www.w3.org/2000/svg">
<path d="M13.75 55C13.75 56.4587 14.3295 57.8576 15.3609 58.8891C16.3924 59.9205 17.7913 60.5 19.25 60.5H46.75C48.2087 60.5 49.6076 59.9205 50.6391 58.8891C51.6705 57.8576 52.25 56.4587 52.25 55V22H57.75V16.5H46.75V11C46.75 9.54131 46.1705 8.14236 45.1391 7.11091C44.1076 6.07946 42.7087 5.5 41.25 5.5H24.75C23.2913 5.5 21.8924 6.07946 20.8609 7.11091C19.8295 8.14236 19.25 9.54131 19.25 11V16.5H8.25V22H13.75V55ZM24.75 11H41.25V16.5H24.75V11ZM22 22H46.75V55H19.25V22H22Z" fill="#FF225D"/>
<path d="M24.75 27.5H30.25V49.5H24.75V27.5ZM35.75 27.5H41.25V49.5H35.75V27.5Z" fill="#FF225D"/>
</svg>
